:SAMPLES-PER-SECOND 30
:FULLY-SPECIFIED
:DEGREES
28
root  60.2343 37.3123 -1.19982 -150.108 -78.3194 148.531
RightUpLeg  15.8924 -5.23763 -12.6592
RightLeg  16.2517 2.61932 -0.377175
RightFoot  -23.9049 1.0054 10.5997
RightToes  -1.33073e-015 0 -3.6325e-017
Spine  5.22726 2.58762 4.59512
Spine1  3.78696 5.2535 -11.3531
HEad  -12.5769 -1.4982 -2.40524
LeftShoulder1  -0.617137 5.09137 -32.7185
LeftArm  -6.5572 15.8339 -35.9289
LeftForeArm  33.9233 -6.90622 -7.14435
LeftHand  -0.0984213 9.9212 -1.12434
RightShoulder  -0.995561 -6.22941 29.9658
RightArm  29.5328 -4.58243 45.7984
RightForeArm  11.9474 15.5114 7.25193
RightHand  -0.0213395 1.85337 -0.503639
LeftUpLeg  -24.1169 4.71454 -6.38839
LeftLeg  21.6887 6.4907 3.16946
LeftFoot  1.61252 -0.438869 3.80545
LeftToes  -1.63346e-009 7.54925e-011 9.86887e-012
29
root  59.0696 37.2205 -1.03085 -146.048 -78.6265 143.785
RightUpLeg  15.487 -1.41871 -12.9745
RightLeg  22.0735 -0.384298 -0.274181
RightFoot  -22.2315 1.40123 16.382
RightToes  -1.33073e-015 0 -3.6325e-017
Spine  5.70633 2.3877 2.77568
Spine1  4.06777 4.85179 -11.1738
HEad  -11.5028 -0.991728 -2.40338
LeftShoulder1  -0.588012 5.01951 -32.6461
LeftArm  -7.16229 14.0125 -36.0234
LeftForeArm  34.4621 -4.68617 -6.7871
LeftHand  -0.0704602 10.5386 -0.352722
RightShoulder  -1.09181 -6.48322 30.1141
RightArm  28.9272 -6.22161 45.1045
RightForeArm  11.098 15.7912 7.00957
RightHand  -0.0921278 2.86823 -1.47931
LeftUpLeg  -23.134 5.00562 -7.79969
LeftLeg  24.5783 5.68908 3.18141
LeftFoot  -0.495387 -0.500489 5.29472
LeftToes  -1.63346e-009 7.54925e-011 9.86887e-012
30
root  57.9412 37.2408 -0.868983 -142.967 -78.1671 140.118
RightUpLeg  12.4909 0.50359 -14.0227
RightLeg  31.3538 -0.992429 -0.900768
RightFoot  -17.2377 0.956708 21.1046
RightToes  -1.33073e-015 0 -3.6325e-017
Spine  6.36113 2.51657 0.611975
Spine1  4.05129 4.6109 -10.9422
HEad  -9.94036 -0.399898 -2.86891
LeftShoulder1  -0.635636 5.14666 -32.5387
LeftArm  -7.12347 12.4009 -36.4458
LeftForeArm  36.5784 -4.02181 -6.81311
LeftHand  -0.0984814 8.62955 -1.62615
RightShoulder  -1.05175 -6.38058 30.0162
RightArm  26.8384 -7.58626 44.6891
RightForeArm  10.7336 14.696 7.36894
RightHand  -0.173347 4.41592 -2.34556
LeftUpLeg  -21.3144 4.91465 -9.1659
LeftLeg  25.8551 6.10054 3.55614
LeftFoot  -2.83498 -0.422536 5.90062
LeftToes  -1.63346e-009 7.54925e-011 9.86887e-012
31
root  56.7824 37.4253 -0.731382 -141.103 -78.0048 138.111
RightUpLeg  6.89924 1.97317 -14.5007
RightLeg  42.6106 -1.47244 -1.76702
RightFoot  -5.80014 -0.664398 17.358
RightToes  -1.33073e-015 0 -3.6325e-017
Spine  6.2405 2.58396 -1.13556
Spine1  3.97571 4.30913 -9.81626
HEad  -8.50763 -0.522254 -3.13651
LeftShoulder1  -0.678861 5.25453 -32.6168
LeftArm  -6.40175 10.2522 -36.8026
LeftForeArm  37.1677 -4.16615 -7.30334
LeftHand  -0.1412 9.23582 -2.61238
RightShoulder  -1.00126 -6.2546 29.845
RightArm  23.7922 -8.11545 44.8898
RightForeArm  13.8897 13.0131 7.70136
RightHand  -0.075751 4.08033 -1.20027
LeftUpLeg  -18.9902 4.48705 -10.0242
LeftLeg  25.5043 6.53368 3.73578
LeftFoot  -4.61942 -0.33558 6.17502
LeftToes  -1.63346e-009 7.54925e-011 9.86887e-012
32
root  55.6917 37.5445 -0.629516 -139.398 -78.1194 136.163
RightUpLeg  0.158821 3.74989 -14.0972
RightLeg  53.5165 -0.804745 -1.45743
RightFoot  7.14078 -1.24635 7.23667
RightToes  -1.33073e-015 0 -3.6325e-017
Spine  6.41008 2.47392 -2.7233
Spine1  4.02573 3.79584 -8.85805
HEad  -7.62243 0.329741 -3.48555
LeftShoulder1  -0.716016 5.34408 -32.7476
LeftArm  -5.45804 7.93744 -37.0671
LeftForeArm  37.0486 -5.18047 -7.99583
LeftHand  -0.129484 8.87706 -2.55994
RightShoulder  -1.00949 -6.28346 29.7659
RightArm  22.1641 -8.54293 45.207
RightForeArm  15.8066 12.5015 7.60862
RightHand  -0.0612279 3.45538 -1.05112
LeftUpLeg  -16.7759 4.51231 -10.6105
LeftLeg  25.3964 6.42703 3.67352
LeftFoot  -6.59948 -0.206143 5.9134
LeftToes  -1.63346e-009 7.54925e-011 9.86887e-012
33
root  54.6195 37.7051 -0.552721 -139.423 -78.2921 135.687
RightUpLeg  -4.77691 5.24647 -13.61
RightLeg  59.975 1.64616 2.59417
RightFoot  6.43332 -1.02651 6.82084
RightToes  -1.33073e-015 0 -3.6325e-017
Spine  6.52396 2.25182 -3.52304
Spine1  4.45175 3.40047 -8.81084
HEad  -6.37868 1.20853 -3.28534
LeftShoulder1  -0.637769 5.16444 -32.2623
LeftArm  -4.63014 5.53123 -37.8043
LeftForeArm  36.8137 -6.37991 -8.48615
LeftHand  -0.111428 8.42077 -2.42261
RightShoulder  -0.979328 -6.18076 30.0181
RightArm  23.019 -9.15061 45.3789
RightForeArm  14.4628 13.8549 7.13947
RightHand  -0.0637162 3.56917 -1.07129
LeftUpLeg  -13.9646 4.99182 -10.7456
LeftLeg  24.5984 6.03936 3.35187
LeftFoot  -8.3469 -0.0898594 5.37361
LeftToes  -1.63346e-009 7.54925e-011 9.86887e-012
